<?xml version="1.0" encoding="UTF-8" standalone="no"?>
<!-- Created with Inkscape (http://www.inkscape.org/) -->

<svg
   xmlns:dc="http://purl.org/dc/elements/1.1/"
   xmlns:cc="http://creativecommons.org/ns#"
   xmlns:rdf="http://www.w3.org/1999/02/22-rdf-syntax-ns#"
   xmlns:svg="http://www.w3.org/2000/svg"
   xmlns="http://www.w3.org/2000/svg"
   xmlns:sodipodi="http://sodipodi.sourceforge.net/DTD/sodipodi-0.dtd"
   xmlns:inkscape="http://www.inkscape.org/namespaces/inkscape"
   width="640"
   height="480"
   id="svg2"
   version="1.1"
   inkscape:version="0.48.4 r9939"
   sodipodi:docname="New document 1">
  <defs
     id="defs4" />
  <sodipodi:namedview
     id="base"
     pagecolor="#ffffff"
     bordercolor="#666666"
     borderopacity="1.0"
     inkscape:pageopacity="0.0"
     inkscape:pageshadow="2"
     inkscape:zoom="0.49497475"
     inkscape:cx="218.17668"
     inkscape:cy="286.22863"
     inkscape:document-units="px"
     inkscape:current-layer="layer1"
     showgrid="false"
     fit-margin-top="0"
     fit-margin-left="0"
     fit-margin-right="0"
     fit-margin-bottom="0"
     inkscape:window-width="1065"
     inkscape:window-height="676"
     inkscape:window-x="299"
     inkscape:window-y="104"
     inkscape:window-maximized="0" />
  <metadata
     id="metadata7">
    <rdf:RDF>
      <cc:Work
         rdf:about="">
        <dc:format>image/svg+xml</dc:format>
        <dc:type
           rdf:resource="http://purl.org/dc/dcmitype/StillImage" />
        <dc:title></dc:title>
      </cc:Work>
    </rdf:RDF>
  </metadata>
  <g
     inkscape:label="Layer 1"
     inkscape:groupmode="layer"
     id="layer1"
     transform="translate(-131.42859,-323.79077)">
    <path
       style="fill:#000000"
       d="m 600.42859,801.31224 c -53.12469,-19.04042 -88.44242,-29.9072 -131.5,-40.46076 -11.55,-2.83094 -24.375,-6.03381 -28.5,-7.11748 -4.125,-1.08367 -10.875,-2.68862 -15,-3.56655 -4.125,-0.87793 -9.075,-1.94959 -11,-2.38146 -5.56962,-1.24953 -33.2192,-6.61142 -48.5,-9.40528 -29.51466,-5.39629 -71.31697,-10.10344 -103.22152,-11.62327 -11.67455,-0.55613 -27.87566,-1.44615 -36.00247,-1.97781 -8.1268,-0.53166 -32.88851,-1.26979 -55.02601,-1.64029 l -40.25,-0.67364 0,-7.41475 0,-7.41475 34.75,0.58918 c 30.31257,0.51395 71.40114,1.98437 85.25,3.05081 2.475,0.19059 11.025,0.57195 19,0.84746 19.83275,0.68518 54.46842,4.13224 73.5,7.31498 4.95,0.82782 10.8,1.71095 13,1.96253 2.2,0.25157 7.15,1.08335 11,1.8484 3.85,0.76505 12.85,2.55628 20,3.98053 7.15,1.42424 14.77811,2.80305 16.95135,3.06401 2.17324,0.26096 5.32324,0.8985 7,1.41675 1.67676,0.51825 7.09865,1.71143 12.04865,2.6515 4.95,0.94007 13.275,2.81068 18.5,4.1569 5.225,1.34622 11.3,2.79237 13.5,3.21366 3.91446,0.74961 17.54777,4.32678 30.5,8.00273 3.575,1.01461 7.85,2.08557 9.5,2.37991 1.65,0.29434 3.9,0.84292 5,1.21906 1.43988,0.49238 1.15982,-0.0507 -1,-1.93916 -3.24985,-2.84154 -22.44529,-17.47662 -29.11083,-22.19483 -2.26095,-1.60042 -10.58595,-7.52681 -18.5,-13.16977 -7.91404,-5.64296 -15.21823,-10.81796 -16.23152,-11.5 -1.01329,-0.68204 -4.38829,-3.06321 -7.5,-5.29147 -38.76611,-27.76007 -98.50809,-64.31704 -137.15765,-83.92871 -6.325,-3.20945 -13.10876,-6.84532 -15.07502,-8.07971 -5.92438,-3.71926 -20.67298,-10.82726 -33.92498,-16.34995 -6.875,-2.86511 -13.25906,-5.61856 -14.18681,-6.11878 -2.36912,-1.27737 -12.1196,-4.70063 -19.81319,-6.95614 -3.575,-1.04808 -13.25,-4.00688 -21.5,-6.57511 -8.25,-2.56823 -24,-7.00403 -35,-9.85733 l -20,-5.18782 -0.29353,-7.77873 c -0.26736,-7.08551 -0.13369,-7.73077 1.5,-7.24056 0.98644,0.296 6.29353,1.64489 11.79353,2.99754 30.51618,7.50503 46.95461,12.29832 72.57838,21.16318 26.85771,9.29176 41.54331,16.30331 96.55553,46.0999 10.52365,5.69999 20.02335,10.36361 21.11045,10.36361 1.0871,0 3.50643,-1.03821 5.37629,-2.30713 1.86986,-1.26892 4.74516,-3.00754 6.38955,-3.86359 5.56798,-2.89864 8.00957,-4.32341 11.00387,-6.42121 1.64226,-1.15056 6.81093,-4.25198 11.48593,-6.89203 4.675,-2.64006 13.675,-7.72405 20,-11.29777 6.325,-3.57371 16,-8.84 21.5,-11.70285 5.5,-2.86285 12.25,-6.47886 15,-8.03559 10.35814,-5.86357 44.04518,-22.21511 55,-26.69675 10.42922,-4.26662 30.27386,-11.67171 40,-14.92612 9.65913,-3.23199 11.5,-4.04296 11.5,-5.06618 0,-0.5699 -1.60435,-0.69552 -3.90931,-0.3061 -2.79601,0.47238 -4.86068,0.16745 -7.25,-1.07075 -1.83738,-0.95217 -4.91569,-2.10786 -6.84069,-2.5682 -8.67239,-2.07391 -47.24644,-9.61342 -68.5,-13.38871 -4.95,-0.87927 -13.5,-2.67147 -19,-3.98266 -18.25675,-4.35238 -23.60099,-5.47436 -26.07562,-5.47436 -1.34834,0 -3.23291,-0.41532 -4.18795,-0.92293 -0.95504,-0.50761 -5.56143,-1.65759 -10.23643,-2.55551 -4.675,-0.89792 -10.525,-2.05702 -13,-2.57577 -27.34996,-5.73251 -63.5189,-11.65031 -91,-14.88901 -54.27531,-6.39646 -82.25358,-8.20149 -121.43004,-7.83409 l -29.57045,0.27731 2.4e-4,-9.16483 2.5e-4,-9.16483 4.75,-3.33517 c 5.6654,-3.97791 7.99977,-5.46478 10.98078,-6.99419 1.22693,-0.62947 2.46673,-1.88792 2.75512,-2.79656 0.28839,-0.90864 2.43454,-2.86456 4.76922,-4.34648 2.33469,-1.48193 5.68298,-4.04521 7.44065,-5.69618 1.75767,-1.65097 3.52002,-3.00176 3.91634,-3.00176 1.17562,0 13.37749,-8.43369 13.38291,-9.25 0.003,-0.4125 0.46873,-0.75 1.03553,-0.75 0.5668,0 2.41342,-1.575 4.10359,-3.5 1.69018,-1.925 3.49465,-3.5 4.00994,-3.5 1.20256,0 6.15659,-3.47999 11.7445,-8.25 2.41615,-2.0625 4.89214,-3.74947 5.50221,-3.74882 1.72745,0.002 19.60921,-12.31713 19.60921,-13.50902 0,-1.31439 5.23782,-4.49216 7.40429,-4.49216 0.87764,0 1.59571,-0.69099 1.59571,-1.53554 0,-0.86853 1.96393,-2.37738 4.52124,-3.47356 2.48668,-1.06592 4.76888,-2.58337 5.07155,-3.3721 0.30266,-0.78874 2.8806,-2.43211 5.72875,-3.65195 2.84816,-1.21983 5.40346,-2.5205 5.67846,-2.89037 0.275,-0.36988 2.56087,-1.86246 5.07972,-3.31686 2.51885,-1.45439 5.20035,-3.39216 5.9589,-4.30616 0.75855,-0.914 2.29768,-2.07397 3.42028,-2.57771 1.12261,-0.50375 4.0661,-2.25552 6.5411,-3.89282 2.475,-1.63731 5.97542,-3.66471 7.77871,-4.50534 1.8033,-0.84063 4.273,-2.67196 5.48824,-4.0696 1.8668,-2.14701 2.75425,-2.43906 5.72129,-1.88284 1.93147,0.36209 4.63676,1.26246 6.01176,2.00081 1.375,0.73836 3.74164,1.60669 5.2592,1.92962 3.25008,0.6916 4.22839,1.96917 19.94378,26.04442 19.50195,29.87611 23.93225,36.46554 24.93271,37.08386 0.57007,0.35233 4.93525,-2.08778 9.7004,-5.42245 4.76515,-3.33468 14.96391,-9.98905 22.66391,-14.7875 24.38152,-15.19395 31.03425,-19.67044 39.20779,-26.38213 0.66429,-0.54548 1.47061,-0.99178 1.79182,-0.99178 0.91268,0 3.92559,-3.18222 6.39088,-6.75 1.94381,-2.8131 2.82272,-3.25 6.53806,-3.25 3.86412,0 10.71432,3.2625 12.57145,5.98732 0.275,0.40349 2.075,1.52891 4,2.50093 7.35713,3.71495 38.54063,25.59121 42,29.46438 0.275,0.3079 3.425,3.00539 7,5.99443 3.575,2.98903 11.7167,10.52373 18.09267,16.74377 6.37597,6.22005 12.07729,11.30917 12.66959,11.30917 1.30059,0 18.91964,-10.57752 21.73774,-13.05016 1.1,-0.96515 3.575,-2.63754 5.5,-3.71643 7.4214,-4.15937 11.62908,-6.60792 15,-8.72884 1.925,-1.21118 8.225,-4.99056 14,-8.39863 18.46929,-10.89949 28.23589,-17.04933 29.383,-18.5019 0.61435,-0.77795 3.33747,-3.30524 6.05138,-5.61619 4.41468,-3.7592 5.34659,-4.14644 8.84829,-3.67676 3.82284,0.51275 8.71733,3.95291 8.71733,6.12711 0,0.59926 2.6264,4.00832 5.83645,7.57568 3.21005,3.56737 8.01811,9.63612 10.68458,13.48612 2.66646,3.85 6.67756,9.41994 8.91354,12.37764 2.23599,2.9577 4.72458,6.3327 5.53022,7.5 3.52244,5.10374 10.44223,14.20708 11.49508,15.12236 0.96448,0.83846 13.83273,16.92897 28.39082,35.5 6.47779,8.2634 17.51932,21.44275 22.36072,26.69014 2.63373,2.85458 4.78859,5.89208 4.78859,6.75 0,1.34382 2.0775,1.55986 15,1.55986 l 15,0 0,7.5 0,7.5 -17.5,0.175 c -9.625,0.0962 -18.75905,0.25375 -20.2979,0.35 -14.87664,0.93049 -42.10408,1.85957 -47.7021,1.62774 -18.92964,-0.78393 -87.40057,13.92236 -94.42697,20.28117 -1.08225,0.97942 -3.59302,1.56609 -6.70243,1.56609 -11.67129,0 -48.4329,10.42606 -82.8706,23.50314 -19.52009,7.4124 -59.31811,26.12148 -75.5,35.49261 -3.575,2.07032 -9.65,5.30552 -13.5,7.18932 -7.3341,3.58857 -27.45254,14.84357 -36,20.13973 -13.27609,8.2261 -24.5,15.76058 -24.5,16.44655 0,0.41876 2.5875,2.30477 5.75,4.19113 3.1625,1.88636 14.23218,8.85399 24.59928,15.48363 10.36711,6.62964 19.56143,12.50389 20.43183,13.05389 0.87041,0.55 5.88823,3.89292 11.15072,7.42872 5.26249,3.5358 12.94317,8.68101 17.06817,11.4338 4.125,2.75279 9.41454,6.44951 11.75454,8.21494 5.08048,3.833 7.21003,3.61512 17.89676,-1.83113 14.11424,-7.19301 58.1961,-23.74633 63.23698,-23.74633 1.09653,0 2.23631,-0.39257 2.53285,-0.87238 0.29654,-0.47981 5.8356,-2.57569 12.30902,-4.65751 6.47342,-2.08182 15.59485,-5.01807 20.26985,-6.525 4.675,-1.50693 11.875,-3.70216 16,-4.87827 4.125,-1.17612 10.2,-2.99263 13.5,-4.0367 3.3,-1.04406 8.7,-2.45119 12,-3.12695 3.3,-0.67576 6.7979,-1.62683 7.7731,-2.11347 0.97521,-0.48665 5.52546,-1.31119 10.11167,-1.83231 4.58622,-0.52112 10.47047,-1.89053 13.07612,-3.04314 2.60565,-1.1526 5.61269,-1.86678 6.68231,-1.58707 1.06962,0.27971 3.16247,-0.12671 4.65078,-0.90316 1.48831,-0.77644 3.74425,-1.41449 5.0132,-1.41788 1.26895,-0.003 4.19395,-0.41911 6.5,-0.92382 14.51782,-3.17743 44.12781,-7.78927 54.69282,-8.51856 3.575,-0.24678 9.65,-1.09904 13.5,-1.89392 9.18012,-1.89533 17.97667,-2.68164 34.79502,-3.11027 l 13.79502,-0.35157 -0.29502,6.14599 -0.29502,6.14599 -16,1.13884 c -8.8,0.62636 -22.075,2.07675 -29.5,3.2231 -11.61201,1.79277 -21.92111,3.2619 -33.30174,4.74575 -3.07118,0.40043 -8.30262,1.2649 -25.69826,4.24651 -15.8502,2.71671 -16.52723,2.83975 -25,4.54342 -6.33579,1.27397 -40.76611,9.86892 -50.5,12.60648 -8.34301,2.34638 -12.0293,3.44376 -24,7.14458 -7.15,2.21047 -13.9,4.42063 -15,4.91148 -1.1,0.49084 -10.1,3.56447 -20,6.83029 -22.45795,7.40845 -30.97781,10.40262 -40.5,14.23305 -13.77902,5.54281 -26.6743,11.54049 -27.42536,12.75573 -0.30661,0.4961 0.67617,1.69931 2.18395,2.6738 4.76526,3.07983 33.27525,24.45175 45.24141,33.91428 6.325,5.00165 12.98588,10.13992 14.80195,11.41838 1.81607,1.27846 4.29448,3.89274 5.50757,5.8095 2.016,3.18541 3.36564,3.85928 15.69805,7.83801 14.13662,4.56081 29.68952,9.95259 38.99243,13.51764 3.025,1.15924 7.075,2.56492 9,3.12374 1.925,0.55882 4.85,1.61841 6.5,2.35465 1.65,0.73624 7.5,2.89841 13,4.80482 5.5,1.90641 12.475,4.46353 15.5,5.68249 3.025,1.21896 8.425,3.25314 12,4.52041 l 6.5,2.30412 -21,0.005 c -19.47096,0.005 -21.47327,-0.1646 -27.5,-2.32463 z M 573.07466,514.39683 c 2.83034,-0.75361 6.43034,-2.05369 8,-2.88907 1.56966,-0.83537 5.10393,-1.98063 7.85393,-2.54501 2.75,-0.56439 6.25435,-1.50424 7.78745,-2.08855 2.57745,-0.98237 2.69045,-1.24566 1.5,-3.49489 -3.26933,-6.17702 -14.95595,-18.32575 -42.8157,-44.50872 -9.60946,-9.0311 -25.57175,-24.14437 -35.47175,-33.58505 -28.16142,-26.85484 -40.12871,-36.9976 -55,-46.61471 -3.63957,-2.35368 -5.62662,-3.52711 -15,-8.85808 -1.65,-0.93841 -4.69303,-2.02368 -6.7623,-2.41171 -3.5701,-0.66947 -4.68721,-0.10283 -21.86774,11.09211 -45.96336,29.95002 -55.42021,36.72022 -57.98426,41.51119 -0.78213,1.46142 -0.78633,2.7091 -0.0149,4.40233 1.37364,3.0148 13.50224,21.31449 15.8512,23.91636 0.97787,1.08315 3.04493,3.66512 4.59345,5.73771 1.54853,2.07259 3.95848,4.99722 5.35545,6.49919 1.39697,1.50196 4.11591,5.10036 6.04208,7.99643 2.74013,4.11988 3.41372,6.02297 3.09577,8.74648 -0.48221,4.13049 -2.08433,3.49021 18.6912,7.46991 8.8,1.6857 17.96159,3.5232 20.35908,4.08333 4.54114,1.06095 13.98235,2.77689 32.64092,5.93247 10.43197,1.76427 27.57408,5.14766 42.99963,8.48695 3.84979,0.8334 8.48464,1.51527 10.29966,1.51527 1.81501,0 4.61346,0.6792 6.21877,1.50934 1.71574,0.88724 8.39297,1.96436 16.20034,2.61332 13.03663,1.08362 17.13363,2.18673 19.72688,5.3114 1.56231,1.88247 1.29887,1.87659 7.70079,0.172 z m 62.85393,-16.55123 c 8.25,-1.61539 22.65,-4.04234 32,-5.39322 9.35,-1.35089 18.21907,-3.01622 19.70904,-3.70073 2.29647,-1.05504 3.11873,-0.97614 5.39921,0.51809 2.25657,1.47857 4.7926,1.73889 15.73433,1.61514 7.17429,-0.0811 13.21861,-0.32196 13.43181,-0.53517 0.72539,-0.72539 -2.01536,-5.04579 -6.69832,-10.55894 -2.56949,-3.025 -12.28787,-15.175 -21.5964,-27 -9.30854,-11.825 -19.637,-24.93911 -22.95214,-29.14247 -3.31514,-4.20335 -9.36204,-12.30336 -13.43755,-18 -12.23042,-17.09534 -15.26945,-20.87069 -19.76657,-24.55575 l -4.2962,-3.52041 -9.26361,5.76226 c -5.09498,3.16924 -10.6136,6.52473 -12.2636,7.45665 -1.65,0.93191 -9.22223,5.47559 -16.82717,10.09705 -7.60494,4.62147 -16.58635,10.05886 -19.95868,12.08308 -9.41723,5.65265 -26.66561,18.18899 -26.69126,19.39955 -0.0126,0.59398 3.91461,4.79376 8.72711,9.33285 8.7624,8.26459 14.26118,13.50893 36.92464,35.21606 6.67765,6.39588 13.85632,12.92088 15.9526,14.5 2.09628,1.57912 5.10934,4.33363 6.69568,6.12113 1.58635,1.7875 3.17515,3.24818 3.53067,3.24595 0.35553,-0.002 7.39641,-1.32573 15.64641,-2.94112 z M 374.31706,470.04077 c -2.24948,-3.7125 -6.47154,-9.9 -9.38234,-13.75 -2.91081,-3.85 -8.37797,-12.03107 -12.14925,-18.18017 -3.77128,-6.14909 -11.61042,-18.29909 -17.4203,-26.99999 -10.48924,-15.70874 -12.55432,-18.90783 -21.50865,-33.31984 -6.90391,-11.11184 -15.33356,-21.99988 -17.95854,-23.1959 -1.99425,-0.90864 -3.93088,-0.11785 -14.14006,5.77387 -10.92728,6.30614 -23.81474,14.28014 -32.32933,20.0035 -1.925,1.29395 -8.56331,5.73308 -14.75181,9.86474 -6.18849,4.13165 -14.06349,9.67231 -17.5,12.31256 -3.4365,2.64025 -9.39819,7.01801 -13.24819,9.72834 -6.80711,4.79209 -33.08813,24.38201 -48.75719,36.3437 l -7.75719,5.92181 36.25719,0.54908 c 27.53766,0.41703 42.75045,1.15865 63.25719,3.08375 50.25977,4.71821 53.45076,5.12583 91.5,11.68816 12.925,2.22917 26.18861,4.50065 29.47469,5.04773 3.28608,0.54709 6.17358,1.1936 6.41667,1.43668 0.24308,0.24309 1.26212,0.44198 2.26453,0.44198 1.53946,0 1.18727,-1.04846 -2.26742,-6.75 z"
       id="path3163"
       inkscape:connector-curvature="0" />
  </g>
</svg>
